<?xml version="1.0" encoding="UTF-8" standalone="no"?>
<!-- Created with Inkscape (http://www.inkscape.org/) -->

<svg
   width="64pt"
   height="64pt"
   viewBox="0 0 22.577778 22.577778"
   version="1.1"
   id="svg831"
   inkscape:version="1.1.1 (3bf5ae0d25, 2021-09-20)"
   sodipodi:docname="Export - Unblash - 64px.svg"
   inkscape:export-filename="C:\Users\User\Desktop\CARLOS PROJECT\3. MARET 1\EXPORT\FLAT\4 - Clipboard.png"
   inkscape:export-xdpi="576"
   inkscape:export-ydpi="576"
   xmlns:inkscape="http://www.inkscape.org/namespaces/inkscape"
   xmlns:sodipodi="http://sodipodi.sourceforge.net/DTD/sodipodi-0.dtd"
   xmlns="http://www.w3.org/2000/svg"
   xmlns:svg="http://www.w3.org/2000/svg"
   xmlns:rdf="http://www.w3.org/1999/02/22-rdf-syntax-ns#"
   xmlns:cc="http://creativecommons.org/ns#"
   xmlns:dc="http://purl.org/dc/elements/1.1/">
  <defs
     id="defs825">
    <pattern
       id="EMFhbasepattern"
       patternUnits="userSpaceOnUse"
       width="6"
       height="6"
       x="0"
       y="0" />
    <pattern
       id="EMFhbasepattern-9"
       patternUnits="userSpaceOnUse"
       width="6"
       height="6"
       x="0"
       y="0" />
    <pattern
       id="EMFhbasepattern-0"
       patternUnits="userSpaceOnUse"
       width="6"
       height="6"
       x="0"
       y="0" />
    <pattern
       id="EMFhbasepattern-7"
       patternUnits="userSpaceOnUse"
       width="6"
       height="6"
       x="0"
       y="0" />
    <pattern
       id="EMFhbasepattern-2"
       patternUnits="userSpaceOnUse"
       width="6"
       height="6"
       x="0"
       y="0" />
    <pattern
       id="EMFhbasepattern-98"
       patternUnits="userSpaceOnUse"
       width="6"
       height="6"
       x="0"
       y="0" />
    <pattern
       id="EMFhbasepattern-6"
       patternUnits="userSpaceOnUse"
       width="6"
       height="6"
       x="0"
       y="0" />
    <pattern
       id="EMFhbasepattern-01"
       patternUnits="userSpaceOnUse"
       width="6"
       height="6"
       x="0"
       y="0" />
    <pattern
       id="EMFhbasepattern-07"
       patternUnits="userSpaceOnUse"
       width="6"
       height="6"
       x="0"
       y="0" />
    <pattern
       id="EMFhbasepattern-8"
       patternUnits="userSpaceOnUse"
       width="6"
       height="6"
       x="0"
       y="0" />
    <pattern
       id="EMFhbasepattern-4"
       patternUnits="userSpaceOnUse"
       width="6"
       height="6"
       x="0"
       y="0" />
    <pattern
       id="EMFhbasepattern-40"
       patternUnits="userSpaceOnUse"
       width="6"
       height="6"
       x="0"
       y="0" />
    <pattern
       id="EMFhbasepattern-08"
       patternUnits="userSpaceOnUse"
       width="6"
       height="6"
       x="0"
       y="0" />
    <pattern
       id="EMFhbasepattern-04"
       patternUnits="userSpaceOnUse"
       width="6"
       height="6"
       x="0"
       y="0" />
    <pattern
       id="EMFhbasepattern-014"
       patternUnits="userSpaceOnUse"
       width="6"
       height="6"
       x="0"
       y="0" />
    <pattern
       id="EMFhbasepattern-27"
       patternUnits="userSpaceOnUse"
       width="6"
       height="6"
       x="0"
       y="0" />
    <pattern
       id="EMFhbasepattern-09"
       patternUnits="userSpaceOnUse"
       width="6"
       height="6"
       x="0"
       y="0" />
    <pattern
       id="EMFhbasepattern-5"
       patternUnits="userSpaceOnUse"
       width="6"
       height="6"
       x="0"
       y="0" />
    <pattern
       id="EMFhbasepattern-018"
       patternUnits="userSpaceOnUse"
       width="6"
       height="6"
       x="0"
       y="0" />
  </defs>
  <sodipodi:namedview
     id="base"
     pagecolor="#ffffff"
     bordercolor="#666666"
     borderopacity="1.0"
     inkscape:pageopacity="0.0"
     inkscape:pageshadow="2"
     inkscape:zoom="9.1757813"
     inkscape:cx="34.874414"
     inkscape:cy="42.666666"
     inkscape:document-units="pt"
     inkscape:current-layer="layer1"
     showgrid="false"
     units="pt"
     inkscape:window-width="1920"
     inkscape:window-height="1001"
     inkscape:window-x="-9"
     inkscape:window-y="41"
     inkscape:window-maximized="1"
     inkscape:pagecheckerboard="true"
     inkscape:showpageshadow="false"
     inkscape:object-paths="true"
     inkscape:snap-intersection-paths="true"
     inkscape:snap-smooth-nodes="true"
     inkscape:snap-midpoints="true"
     showguides="true"
     inkscape:snap-bbox="true"
     inkscape:bbox-nodes="true"
     inkscape:snap-nodes="false"
     inkscape:snap-global="true">
    <inkscape:grid
       type="xygrid"
       id="grid1378" />
    <sodipodi:guide
       position="0.97013831,21.607643"
       orientation="78.000048,0"
       id="guide1380"
       inkscape:locked="false" />
    <sodipodi:guide
       position="0.97013831,0.97013129"
       orientation="0,78.000005"
       id="guide1382"
       inkscape:locked="false" />
    <sodipodi:guide
       position="21.607639,0.97013129"
       orientation="-78.000048,0"
       id="guide1384"
       inkscape:locked="false" />
    <sodipodi:guide
       position="21.607639,21.607643"
       orientation="0,-78.000005"
       id="guide1386"
       inkscape:locked="false" />
  </sodipodi:namedview>
  <metadata
     id="metadata828">
    <rdf:RDF>
      <cc:Work
         rdf:about="">
        <dc:format>image/svg+xml</dc:format>
        <dc:type
           rdf:resource="http://purl.org/dc/dcmitype/StillImage" />
      </cc:Work>
    </rdf:RDF>
  </metadata>
  <g
     inkscape:label="Icon"
     inkscape:groupmode="layer"
     id="layer1"
     transform="translate(0,-274.42223)">
    <g
       id="g2772"
       style="display:inline;stroke-width:0.782007"
       transform="matrix(1.2787616,0,0,1.2787616,-38.544101,-44.248089)">
      <path
         style="color:#000000;fill:#3a4d5c;fill-opacity:1;stroke-width:0.782007;stroke-linecap:round;stroke-linejoin:round;-inkscape-stroke:none"
         d="m 34.802734,251.8125 c -0.581365,0 -1.058593,0.47722 -1.058593,1.05859 v 12.16993 c 0,0.58136 0.477228,1.05859 1.058593,1.05859 h 10.31836 c 0.581365,0 1.058593,-0.47723 1.058593,-1.05859 v -12.16993 c 0,-0.58137 -0.477228,-1.05859 -1.058593,-1.05859 h -5.160157 z"
         id="path509011" />
      <path
         id="path676390"
         style="fill:#143441;fill-opacity:1;stroke-width:2.95562;stroke-linecap:round;stroke-linejoin:round"
         d="m 133.03711,-81.835938 c -1.93372,0 -3.78834,0.358531 -5.5,1.011719 v 24.035157 c 0,2.197266 1.80271,4 4,4 h 9.19336 c 4.68071,-2.687229 7.85154,-7.73872 7.85156,-13.494141 3e-5,-8.549632 -6.99359,-15.552734 -15.54492,-15.552735 z"
         transform="matrix(0.26458334,0,0,0.26458334,0,280.06666)" />
      <path
         id="path509203"
         style="color:#000000;fill:#ececec;stroke-width:2.95562;stroke-linecap:round;stroke-linejoin:round;-inkscape-stroke:none"
         d="m 131.53711,-106.78711 v 34.998048 a 1.0001006,1.0001006 0 0 0 0.11914,0.472656 l 7.5,14.001953 a 1.0001006,1.0001006 0 0 0 0.87891,0.525391 h 26.5 c 2.1973,0 4.00195,-1.796837 4.00195,-3.994141 V -106.78711 H 151.0332 Z"
         transform="matrix(0.26458334,0,0,0.26458334,0,280.06666)" />
      <path
         id="path30051"
         style="color:#000000;display:inline;fill:#cccccc;fill-opacity:1;stroke-width:2.95562;stroke-linecap:round;stroke-linejoin:round;-inkscape-stroke:none"
         d="m 140.03516,-96.785156 a 1.0000006,1.0000006 0 0 0 -0.99805,0.996094 1.0000006,1.0000006 0 0 0 0.99805,1.003906 h 16.0039 a 1.0000006,1.0000006 0 0 0 0.9961,-1.003906 1.0000006,1.0000006 0 0 0 -0.9961,-0.996094 z m 20.0039,0 a 1.0000006,1.0000006 0 0 0 -1.0039,0.996094 1.0000006,1.0000006 0 0 0 1.0039,1.003906 h 4.99805 a 1.0000006,1.0000006 0 0 0 0.99609,-1.003906 1.0000006,1.0000006 0 0 0 -0.99609,-0.996094 z m -23.00586,2.001953 a 1.0000006,1.0000006 0 0 0 -0.99609,0.996094 1.0000006,1.0000006 0 0 0 0.99609,0.998047 1.0000006,1.0000006 0 0 0 1.00391,-0.998047 1.0000006,1.0000006 0 0 0 -1.00391,-0.996094 z m 3.00196,2 a 1.0000006,1.0000006 0 0 0 -0.99805,0.996094 1.0000006,1.0000006 0 0 0 0.99805,1.003906 h 5.0039 a 1.0000006,1.0000006 0 0 0 0.9961,-1.003906 1.0000006,1.0000006 0 0 0 -0.9961,-0.996094 z m 8.99804,0 a 1.0000006,1.0000006 0 0 0 -0.99609,0.996094 1.0000006,1.0000006 0 0 0 0.99609,1.003906 h 16.00391 a 1.0000006,1.0000006 0 0 0 0.99609,-1.003906 1.0000006,1.0000006 0 0 0 -0.99609,-0.996094 z m -8.99804,4.996094 a 1.0000006,1.0000006 0 0 0 -0.99805,0.998047 1.0000006,1.0000006 0 0 0 0.99805,1.003906 h 25.00195 a 1.0000006,1.0000006 0 0 0 0.99609,-1.003906 1.0000006,1.0000006 0 0 0 -0.99609,-0.998047 z m -3.00196,2.003906 a 1.0000006,1.0000006 0 0 0 -0.99609,0.996094 1.0000006,1.0000006 0 0 0 0.99609,0.998047 1.0000006,1.0000006 0 0 0 1.00391,-0.998047 1.0000006,1.0000006 0 0 0 -1.00391,-0.996094 z m 3.00196,1.998047 a 1.0000006,1.0000006 0 0 0 -0.99805,0.996094 1.0000006,1.0000006 0 0 0 0.99805,1.003906 h 16.0039 a 1.0000006,1.0000006 0 0 0 0.9961,-1.003906 1.0000006,1.0000006 0 0 0 -0.9961,-0.996094 z m 20.0039,0 a 1.0000006,1.0000006 0 0 0 -1.0039,0.996094 1.0000006,1.0000006 0 0 0 1.0039,1.003906 h 4.99805 a 1.0000006,1.0000006 0 0 0 0.99609,-1.003906 1.0000006,1.0000006 0 0 0 -0.99609,-0.996094 z"
         transform="matrix(0.26458334,0,0,0.26458334,0,280.06666)" />
      <path
         id="path684440"
         style="fill:#cccccc;fill-opacity:1;stroke-width:2.95562;stroke-linecap:round;stroke-linejoin:round"
         d="m 136.25,-106.78711 c -0.20027,1.3005 -0.10547,2.63651 -0.10547,4 0,2.68615 2.21405,4.886719 4.89453,4.886719 h 19.9961 c 2.68048,0 4.88672,-2.206199 4.88672,-4.886719 0.0109,-1.31699 0.0477,-2.75903 -0.10547,-4 H 151.0332 Z"
         transform="matrix(0.26458334,0,0,0.26458334,0,280.06666)"
         sodipodi:nodetypes="ccsscccc" />
      <path
         style="color:#000000;fill:#3a4d5c;stroke-width:0.782007;stroke-linecap:round;stroke-linejoin:round;-inkscape-stroke:none"
         d="m 39.486328,249.96094 c -1.141983,0 -0.921882,1.32229 -1.701131,1.32229 h -0.46875 c -0.435236,0 -0.794923,0.35968 -0.794922,0.79492 v 0.79297 c 0,0.43524 0.359686,0.79297 0.794922,0.79297 h 5.291016 c 0.435236,0 0.792969,-0.35773 0.792969,-0.79297 v -0.79297 c 10e-7,-0.43524 -0.357733,-0.79492 -0.792969,-0.79492 h -0.46875 c -0.681267,0 -0.624833,-1.30818 -1.708985,-1.32226 h -0.9375 c -0.002,-2e-5 -0.0039,-2e-5 -0.0059,0 z"
         id="path508627"
         sodipodi:nodetypes="ccssssssssccccc" />
      <path
         style="color:#000000;fill:#ececec;fill-opacity:1;stroke-width:0.782007;stroke-linecap:round;stroke-linejoin:round;-inkscape-stroke:none"
         d="m 39.960937,251.01953 c -0.435243,0 -0.792971,0.35773 -0.792968,0.79297 -3e-6,0.43524 0.357725,0.79492 0.792968,0.79492 0.435244,0 0.794925,-0.35968 0.794922,-0.79492 3e-6,-0.43524 -0.359678,-0.79297 -0.794922,-0.79297 z"
         id="path508819" />
      <path
         id="path676514"
         style="fill:#cccccc;fill-opacity:1;stroke-width:2.95562;stroke-linecap:round;stroke-linejoin:round"
         d="m 131.53711,-81.761719 v 9.972657 c 1.2e-4,0.164967 0.041,0.327341 0.11914,0.472656 l 7.5,14.001953 c 0.1743,0.323205 0.5117,0.524896 0.87891,0.525391 h 5.28515 c 2.04121,-2.631239 3.26171,-5.926432 3.26172,-9.494141 0,-9.188974 -7.12888,-16.124871 -17.04492,-15.478516 z"
         transform="matrix(0.26458334,0,0,0.26458334,0,280.06666)"
         sodipodi:nodetypes="cccccccc" />
      <path
         style="color:#000000;fill:#349951;stroke-width:0.782007;stroke-linecap:round;stroke-linejoin:round;-inkscape-stroke:none"
         d="m 35.199219,259.08789 c -1.896498,0 -3.43946,1.54491 -3.439453,3.44141 5e-6,1.89649 1.542962,3.43945 3.439453,3.43945 1.89649,0 3.439447,-1.54296 3.439453,-3.43945 6e-6,-1.8965 -1.542956,-3.44141 -3.439453,-3.44141 z"
         id="path508406" />
      <path
         style="color:#000000;fill:#f9f9f9;stroke-width:0.782007;stroke-linecap:round;stroke-linejoin:round;-inkscape-stroke:none"
         d="m 35.275356,263 -1.375,-1.37305 c -0.235452,-0.23545 -0.625877,-0.23545 -0.861329,0 l -0.261718,0.25977 c -0.235391,0.23539 -0.234826,0.62537 0,0.86133 l 1.761718,1.76953 c 0.402346,0.40417 1.063239,0.40877 1.470704,0.01 l 3.55664,-3.48047 c 0.238245,-0.23319 0.239626,-0.62558 0.0039,-0.86132 l -0.261718,-0.26172 c -0.235168,-0.23506 -0.623302,-0.238 -0.861328,-0.006 z"
         id="path508214"
         sodipodi:nodetypes="cccccccccccc" />
    </g>
  </g>
</svg>
