<?xml version="1.0" encoding="UTF-8" standalone="no"?>
<!-- Created with Inkscape (http://www.inkscape.org/) -->

<svg
   width="64pt"
   height="64pt"
   viewBox="0 0 22.577778 22.577778"
   version="1.1"
   id="svg831"
   inkscape:version="1.1.1 (3bf5ae0d25, 2021-09-20)"
   sodipodi:docname="Export - Unblash - 64px.svg"
   inkscape:export-filename="C:\Users\User\Desktop\CARLOS PROJECT\3. MARET 1\EXPORT\FLAT\15 - Garbage.png"
   inkscape:export-xdpi="576"
   inkscape:export-ydpi="576"
   xmlns:inkscape="http://www.inkscape.org/namespaces/inkscape"
   xmlns:sodipodi="http://sodipodi.sourceforge.net/DTD/sodipodi-0.dtd"
   xmlns="http://www.w3.org/2000/svg"
   xmlns:svg="http://www.w3.org/2000/svg"
   xmlns:rdf="http://www.w3.org/1999/02/22-rdf-syntax-ns#"
   xmlns:cc="http://creativecommons.org/ns#"
   xmlns:dc="http://purl.org/dc/elements/1.1/">
  <defs
     id="defs825">
    <pattern
       id="EMFhbasepattern"
       patternUnits="userSpaceOnUse"
       width="6"
       height="6"
       x="0"
       y="0" />
    <pattern
       id="EMFhbasepattern-9"
       patternUnits="userSpaceOnUse"
       width="6"
       height="6"
       x="0"
       y="0" />
    <pattern
       id="EMFhbasepattern-0"
       patternUnits="userSpaceOnUse"
       width="6"
       height="6"
       x="0"
       y="0" />
    <pattern
       id="EMFhbasepattern-7"
       patternUnits="userSpaceOnUse"
       width="6"
       height="6"
       x="0"
       y="0" />
    <pattern
       id="EMFhbasepattern-2"
       patternUnits="userSpaceOnUse"
       width="6"
       height="6"
       x="0"
       y="0" />
    <pattern
       id="EMFhbasepattern-98"
       patternUnits="userSpaceOnUse"
       width="6"
       height="6"
       x="0"
       y="0" />
    <pattern
       id="EMFhbasepattern-6"
       patternUnits="userSpaceOnUse"
       width="6"
       height="6"
       x="0"
       y="0" />
    <pattern
       id="EMFhbasepattern-01"
       patternUnits="userSpaceOnUse"
       width="6"
       height="6"
       x="0"
       y="0" />
    <pattern
       id="EMFhbasepattern-07"
       patternUnits="userSpaceOnUse"
       width="6"
       height="6"
       x="0"
       y="0" />
    <pattern
       id="EMFhbasepattern-8"
       patternUnits="userSpaceOnUse"
       width="6"
       height="6"
       x="0"
       y="0" />
    <pattern
       id="EMFhbasepattern-4"
       patternUnits="userSpaceOnUse"
       width="6"
       height="6"
       x="0"
       y="0" />
    <pattern
       id="EMFhbasepattern-40"
       patternUnits="userSpaceOnUse"
       width="6"
       height="6"
       x="0"
       y="0" />
    <pattern
       id="EMFhbasepattern-08"
       patternUnits="userSpaceOnUse"
       width="6"
       height="6"
       x="0"
       y="0" />
    <pattern
       id="EMFhbasepattern-04"
       patternUnits="userSpaceOnUse"
       width="6"
       height="6"
       x="0"
       y="0" />
    <pattern
       id="EMFhbasepattern-014"
       patternUnits="userSpaceOnUse"
       width="6"
       height="6"
       x="0"
       y="0" />
    <pattern
       id="EMFhbasepattern-27"
       patternUnits="userSpaceOnUse"
       width="6"
       height="6"
       x="0"
       y="0" />
    <pattern
       id="EMFhbasepattern-09"
       patternUnits="userSpaceOnUse"
       width="6"
       height="6"
       x="0"
       y="0" />
    <pattern
       id="EMFhbasepattern-5"
       patternUnits="userSpaceOnUse"
       width="6"
       height="6"
       x="0"
       y="0" />
    <pattern
       id="EMFhbasepattern-018"
       patternUnits="userSpaceOnUse"
       width="6"
       height="6"
       x="0"
       y="0" />
  </defs>
  <sodipodi:namedview
     id="base"
     pagecolor="#ffffff"
     bordercolor="#666666"
     borderopacity="1.0"
     inkscape:pageopacity="0.0"
     inkscape:pageshadow="2"
     inkscape:zoom="4.5878906"
     inkscape:cx="23.322265"
     inkscape:cy="36.727118"
     inkscape:document-units="pt"
     inkscape:current-layer="layer1"
     showgrid="false"
     units="pt"
     inkscape:window-width="1920"
     inkscape:window-height="1001"
     inkscape:window-x="-9"
     inkscape:window-y="41"
     inkscape:window-maximized="1"
     inkscape:pagecheckerboard="true"
     inkscape:showpageshadow="false"
     inkscape:object-paths="true"
     inkscape:snap-intersection-paths="true"
     inkscape:snap-smooth-nodes="true"
     inkscape:snap-midpoints="true"
     showguides="true"
     inkscape:snap-bbox="true"
     inkscape:bbox-nodes="true"
     inkscape:snap-nodes="false"
     inkscape:snap-global="true">
    <inkscape:grid
       type="xygrid"
       id="grid1378" />
    <sodipodi:guide
       position="0.97013831,21.607643"
       orientation="78.000048,0"
       id="guide1380"
       inkscape:locked="false" />
    <sodipodi:guide
       position="0.97013831,0.97013129"
       orientation="0,78.000005"
       id="guide1382"
       inkscape:locked="false" />
    <sodipodi:guide
       position="21.607639,0.97013129"
       orientation="-78.000048,0"
       id="guide1384"
       inkscape:locked="false" />
    <sodipodi:guide
       position="21.607639,21.607643"
       orientation="0,-78.000005"
       id="guide1386"
       inkscape:locked="false" />
  </sodipodi:namedview>
  <metadata
     id="metadata828">
    <rdf:RDF>
      <cc:Work
         rdf:about="">
        <dc:format>image/svg+xml</dc:format>
        <dc:type
           rdf:resource="http://purl.org/dc/dcmitype/StillImage" />
      </cc:Work>
    </rdf:RDF>
  </metadata>
  <g
     inkscape:label="Icon"
     inkscape:groupmode="layer"
     id="layer1"
     transform="translate(0,-274.42223)">
    <g
       id="g7606"
       style="display:inline;stroke-width:0.794787"
       transform="matrix(1.2581985,0,0,1.2581985,-76.121582,-117.26878)">
      <path
         style="color:#000000;fill:#3a4d5c;stroke-width:0.794787;stroke-linecap:round;stroke-linejoin:round;-inkscape-stroke:none"
         d="m 68.572266,312.08203 c -0.63949,0 -1.16211,0.5247 -1.16211,1.16406 v 0.82813 a 0.26460996,0.26460996 0 0 0 0.263672,0.26367 h 3.597656 a 0.26460996,0.26460996 0 0 0 0.263672,-0.26367 v -0.82813 c 0,-0.63936 -0.524573,-1.16406 -1.164062,-1.16406 z"
         id="path545412" />
      <path
         id="path116537"
         style="color:#000000;fill:#143441;fill-opacity:1;stroke-width:0.794787;stroke-linecap:round;stroke-linejoin:round;-inkscape-stroke:none"
         d="m 68.542587,312.08228 c -0.442362,0.0113 -0.825466,0.27397 -1.011822,0.64905 0.154731,-0.0768 0.328509,-0.11988 0.512111,-0.11988 h 1.798858 c 0.63949,0 1.16427,0.52439 1.16427,1.16375 v 0.56275 h 0.265617 a 0.26460996,0.26460996 0 0 0 0.263549,-0.26355 v -0.82837 c 0,-0.63936 -0.52478,-1.16375 -1.16427,-1.16375 h -1.798857 c -0.01,0 -0.01952,-2.6e-4 -0.02946,0 z" />
      <path
         style="color:#000000;fill:#3a4d5c;stroke-width:0.794787;stroke-linecap:round;stroke-linejoin:round;-inkscape-stroke:none"
         d="m 62.878906,313.2793 c -0.308436,0 -0.564453,0.25595 -0.564453,0.56445 v 0.30078 c 0,0.47394 0.389314,0.86328 0.863281,0.86328 h 12.589844 c 0.473966,0 0.863281,-0.38934 0.863281,-0.86328 v -0.30078 c 0,-0.3085 -0.256016,-0.56445 -0.564453,-0.56445 z"
         id="path545604" />
      <path
         style="color:#000000;fill:#5f8ea2;stroke-width:0.794787;stroke-linecap:round;stroke-linejoin:round;-inkscape-stroke:none"
         d="m 74.900391,315.67187 -10.855469,0.002 a 0.26460996,0.26460996 0 0 0 -0.263672,0.28906 l 1.007812,11.53516 a 0.26460996,0.26460996 0 0 0 0.002,0.002 c 0.05429,0.55617 0.525077,0.98437 1.083984,0.98437 h 7.193359 c 0.558748,0 1.036947,-0.42642 1.085938,-0.98632 l 1.009765,-11.53711 a 0.26460996,0.26460996 0 0 0 -0.263671,-0.28907 z"
         id="path545796" />
      <path
         style="color:#000000;fill:#3a4d5c;stroke-width:0.794787;stroke-linecap:round;stroke-linejoin:round;-inkscape-stroke:none"
         d="m 65.576172,316.875 a 0.2645835,0.2645835 0 0 0 -0.265625,0.26367 0.2645835,0.2645835 0 0 0 0.265625,0.26563 h 7.792969 a 0.2645835,0.2645835 0 0 0 0.263671,-0.26563 0.2645835,0.2645835 0 0 0 -0.263671,-0.26367 z"
         id="path19236" />
      <path
         style="color:#000000;fill:#3a4d5c;stroke-width:0.794787;stroke-linecap:round;stroke-linejoin:round;-inkscape-stroke:none"
         d="m 65.851796,326.44516 c 0.03782,0.47241 0.438129,0.84181 0.91209,0.84181 h 0.298688 c 0.308428,0 0.564304,-0.2558 0.564309,-0.5643 v -8.08581 c -5e-6,-0.30851 -0.255858,-0.56483 -0.564309,-0.56483 l -1.199409,6e-5 c -0.311311,0 -0.562832,0.27213 -0.538985,0.5824 z"
         id="path546216"
         sodipodi:nodetypes="csscccccc" />
      <path
         style="color:#000000;fill:#3a4d5c;stroke-width:3.00392;stroke-linecap:round;stroke-linejoin:round;-inkscape-stroke:none"
         d="m 271.67578,143.64258 c -1.16579,0 -2.12694,0.96874 -2.12695,2.13476 v 30.56055 c 10e-6,1.16598 0.96124,2.13281 2.12695,2.13281 h 1.13672 c 1.79134,0 3.29651,-1.39619 3.43945,-3.18164 a 1.0001006,1.0001006 0 0 0 0,-0.002 1.0001006,1.0001006 0 0 0 0,-0.002 1.0001006,1.0001006 0 0 0 0,-0.002 1.0001006,1.0001006 0 0 0 0,-0.002 l 2.00196,-29.43164 c 0.0941,-1.17532 -0.86619,-2.20703 -2.04493,-2.20703 z"
         transform="matrix(0.26458334,0,0,0.26458334,0,280.06666)"
         id="path545992" />
      <path
         style="color:#000000;fill:#3a4d5c;stroke-width:3.00392;stroke-linecap:round;stroke-linejoin:round;-inkscape-stroke:none"
         d="m 261.4375,143.64258 c -1.7914,0 -3.26367,1.47236 -3.26367,3.26367 v 28.29492 c 0,1.79127 1.47229,3.26953 3.26367,3.26953 h 2.33984 c 1.79138,0 3.26172,-1.47826 3.26172,-3.26953 v -28.29492 c 0,-1.79131 -1.47032,-3.26367 -3.26172,-3.26367 z"
         transform="matrix(0.26458334,0,0,0.26458334,0,280.06666)"
         id="path546104" />
      <path
         id="path134484"
         style="color:#000000;fill:#143441;fill-opacity:1;stroke-width:0.794787;stroke-linecap:round;stroke-linejoin:round;-inkscape-stroke:none"
         d="m 62.87885,313.2791 c -0.296968,0 -0.544182,0.23772 -0.56224,0.53072 0.01097,-6.5e-4 0.02196,-0.002 0.03307,-0.002 h 13.18731 c 0.308438,0 0.564825,0.25633 0.564825,0.56482 v 0.30076 c 0,0.0997 -0.01748,0.19537 -0.04909,0.28474 0.335312,-0.1188 0.57826,-0.4398 0.57826,-0.81391 v -0.30075 c 0,-0.3085 -0.256386,-0.56483 -0.564824,-0.56483 z" />
    </g>
  </g>
</svg>
