<?xml version="1.0" encoding="UTF-8" standalone="no"?><svg viewBox="0 0 64 64" xmlns="http://www.w3.org/2000/svg" xmlns:xlink="http://www.w3.org/1999/xlink"><style>:root>svg{display:none}:root>svg:target{display:block}</style><svg viewBox="0 0 22.578 22.578" id="svg-sample_(1)" xmlns="http://www.w3.org/2000/svg"><g stroke-width=".782"><path style="-inkscape-stroke:none" d="M5.96 3.338a1.36 1.36 0 00-1.353 1.354v15.562c0 .743.61 1.354 1.353 1.354h13.195a1.36 1.36 0 001.354-1.354V4.692a1.36 1.36 0 00-1.354-1.354h-6.599z" color="#000" fill="#3a4d5c"/><path d="M6.468 11.78a5.21 5.21 0 00-1.861.342v8.132c0 .744.61 1.354 1.353 1.354h3.11a5.272 5.272 0 002.657-4.566c0-2.893-2.366-5.262-5.26-5.262z" fill="#143441"/><path style="-inkscape-stroke:none" d="M5.96 3.338v11.841a.338.338 0 00.04.16l2.538 4.737a.338.338 0 00.297.178h8.966c.744 0 1.354-.608 1.354-1.351V3.338h-6.599z" color="#000" fill="#ececec"/><path style="-inkscape-stroke:none" d="M8.835 6.722a.338.338 0 00-.337.337.338.338 0 00.337.34h5.415a.338.338 0 00.337-.34.338.338 0 00-.337-.337zm6.768 0a.338.338 0 00-.34.337.338.338 0 00.34.34h1.691a.338.338 0 00.337-.34.338.338 0 00-.337-.337zm-7.783.677a.338.338 0 00-.337.337.338.338 0 00.337.338.338.338 0 00.34-.338.338.338 0 00-.34-.337zm1.015.677a.338.338 0 00-.337.337.338.338 0 00.337.34h1.693a.338.338 0 00.337-.34.338.338 0 00-.337-.337zm3.045 0a.338.338 0 00-.337.337.338.338 0 00.337.34h5.414a.338.338 0 00.337-.34.338.338 0 00-.337-.337zm-3.045 1.69a.338.338 0 00-.337.338.338.338 0 00.337.34h8.46a.338.338 0 00.336-.34.338.338 0 00-.337-.338zm-1.015.678a.338.338 0 00-.337.337.338.338 0 00.337.338.338.338 0 00.34-.338.338.338 0 00-.34-.337zm1.015.676a.338.338 0 00-.337.337.338.338 0 00.337.34h5.415a.338.338 0 00.337-.34.338.338 0 00-.337-.337zm6.768 0a.338.338 0 00-.34.337.338.338 0 00.34.34h1.691a.338.338 0 00.337-.34.338.338 0 00-.337-.337z" color="#000" fill="#ccc"/><path d="M7.555 3.338c-.068.44-.036.892-.036 1.353 0 .91.749 1.654 1.656 1.654h6.765c.907 0 1.654-.747 1.654-1.654.003-.445.016-.933-.036-1.353h-5.002z" fill="#ccc"/><path style="-inkscape-stroke:none" d="M11.95.97c-1.46 0-1.18 1.691-2.176 1.691h-.6c-.556 0-1.016.46-1.016 1.017v1.014c0 .556.46 1.014 1.017 1.014h6.766c.556 0 1.014-.458 1.014-1.014V3.678A1.02 1.02 0 0015.94 2.66h-.6c-.87 0-.799-1.673-2.185-1.69h-1.207z" color="#000" fill="#3a4d5c"/><path style="-inkscape-stroke:none" d="M12.556 2.324c-.556 0-1.014.457-1.014 1.014a1.02 1.02 0 001.014 1.016c.557 0 1.017-.46 1.017-1.016a1.02 1.02 0 00-1.017-1.014z" color="#000" fill="#ececec"/><path d="M5.96 11.805v3.374c0 .056.014.11.04.16l2.538 4.737c.059.11.173.178.297.178h1.788a5.226 5.226 0 001.104-3.212c0-3.109-2.412-5.456-5.767-5.237z" fill="#ccc"/><path style="-inkscape-stroke:none" d="M6.467 12.641a4.405 4.405 0 00-4.398 4.401 4.403 4.403 0 004.398 4.398 4.403 4.403 0 004.399-4.398c0-2.425-1.974-4.4-4.399-4.4z" color="#000" fill="#349951"/><path style="-inkscape-stroke:none" d="M6.565 17.644l-1.759-1.756a.784.784 0 00-1.101 0l-.335.332c-.3.301-.3.8 0 1.102l2.253 2.263a1.34 1.34 0 001.88.012l4.549-4.45a.78.78 0 00.005-1.102l-.335-.334a.79.79 0 00-1.101-.008z" color="#000" fill="#f9f9f9"/></g></svg><svg viewBox="0 0 22.578 22.578" id="svg-sample_(2)" xmlns="http://www.w3.org/2000/svg"><g stroke-width=".795" color="#000"><path style="-inkscape-stroke:none" d="M10.156.97c-.805 0-1.462.66-1.462 1.465v1.042a.333.333 0 00.332.331h4.526a.333.333 0 00.332-.331V2.435A1.47 1.47 0 0012.419.97z" fill="#3a4d5c"/><path style="-inkscape-stroke:none" d="M10.119.97a1.468 1.468 0 00-1.273.817c.194-.097.413-.15.644-.15h2.263c.805 0 1.465.659 1.465 1.463v.709h.334a.333.333 0 00.332-.332V2.435A1.47 1.47 0 0012.419.97h-2.3z" fill="#143441"/><path style="-inkscape-stroke:none" d="M2.993 2.477a.716.716 0 00-.71.71v.378c0 .596.49 1.086 1.086 1.086h15.84a1.09 1.09 0 001.086-1.086v-.378a.716.716 0 00-.71-.71z" fill="#3a4d5c"/><path style="-inkscape-stroke:none" d="M18.118 5.487L4.46 5.489a.333.333 0 00-.332.364l1.268 14.514a.333.333 0 00.002.002c.069.7.661 1.239 1.364 1.239h9.051a1.37 1.37 0 001.366-1.241L18.45 5.85a.333.333 0 00-.331-.364z" fill="#5f8ea2"/><path style="-inkscape-stroke:none" d="M6.386 7a.333.333 0 00-.334.332.333.333 0 00.334.335h9.805a.333.333 0 00.332-.335.333.333 0 00-.332-.331zM6.733 19.042c.048.594.551 1.059 1.148 1.059h.375c.389 0 .71-.322.71-.71V9.217a.716.716 0 00-.71-.71H6.747a.686.686 0 00-.678.733zM14.319 8.507a.714.714 0 00-.708.71v10.174c0 .388.32.71.708.71h.378c.597 0 1.098-.465 1.145-1.06a.333.333 0 000-.001l.667-9.799a.688.688 0 00-.681-.734zM10.91 8.507c-.596 0-1.086.49-1.086 1.086v9.42c0 .596.49 1.088 1.087 1.088h.778c.597 0 1.086-.492 1.086-1.088v-9.42a1.09 1.09 0 00-1.086-1.086z" fill="#3a4d5c"/><path style="-inkscape-stroke:none" d="M2.992 2.476c-.373 0-.684.3-.707.668l.042-.002h16.592c.388 0 .71.322.71.71v.379c0 .125-.021.245-.061.358.422-.15.727-.554.727-1.024v-.379a.716.716 0 00-.71-.71z" fill="#143441"/></g></svg><svg viewBox="0 0 22.578 22.578" id="svg-sample_(3)" xmlns="http://www.w3.org/2000/svg"><g stroke-width=".769" color="#000" font-weight="400" font-family="sans-serif"><path d="M7.433.974c-.905 0-1.642.738-1.642 1.642v17.345c0 .905.737 1.645 1.642 1.645h12.456c.945 0 1.718-.775 1.718-1.72V5.712a.344.344 0 00-.083-.226l-3.82-4.396a.344.344 0 00-.26-.117z" style="line-height:normal;font-variant-ligatures:normal;font-variant-position:normal;font-variant-caps:normal;font-variant-numeric:normal;font-variant-alternates:normal;font-variant-east-asian:normal;font-feature-settings:normal;font-variation-settings:normal;text-indent:0;text-align:start;text-decoration-line:none;text-decoration-style:solid;text-decoration-color:#000;text-transform:none;text-orientation:mixed;white-space:normal;shape-padding:0;shape-margin:0;inline-size:0;isolation:auto;mix-blend-mode:normal;solid-color:#000;solid-opacity:1" overflow="visible" fill="#9ccc65"/><path d="M17.442.974a.344.344 0 00-.305.343v4.47a.344.344 0 00.346.345h3.782a.344.344 0 00.261-.566l-3.782-4.473a.344.344 0 00-.302-.12z" style="line-height:normal;font-variant-ligatures:normal;font-variant-position:normal;font-variant-caps:normal;font-variant-numeric:normal;font-variant-alternates:normal;font-variant-east-asian:normal;font-feature-settings:normal;font-variation-settings:normal;text-indent:0;text-align:start;text-decoration-line:none;text-decoration-style:solid;text-decoration-color:#000;text-transform:none;text-orientation:mixed;white-space:normal;shape-padding:0;shape-margin:0;inline-size:0;isolation:auto;mix-blend-mode:normal;solid-color:#000;solid-opacity:1" overflow="visible" fill="#74a838"/><path d="M7.854 4.068a.344.344 0 00-.345.343.344.344 0 00.345.345h6.877a.344.344 0 00.343-.345.344.344 0 00-.343-.343zM8.126 6.817a.344.344 0 00-.345.346.344.344 0 00.345.342h7.98a.344.344 0 00.343-.342.344.344 0 00-.342-.346zM10.946 9.569a.344.344 0 00-.345.345.344.344 0 00.345.343h8.598a.344.344 0 00.345-.343.344.344 0 00-.345-.345zM9.763 12.32a.344.344 0 00-.342.343.344.344 0 00.342.346h7.72a.344.344 0 00.342-.346.344.344 0 00-.342-.342zM8.078 15.072a.344.344 0 00-.343.343.344.344 0 00.343.345h3.901a.344.344 0 00.345-.345.344.344 0 00-.345-.343zM7.854 17.821a.344.344 0 00-.345.346.344.344 0 00.345.342h5.844a.344.344 0 00.345-.342.344.344 0 00-.345-.346z" style="line-height:normal;font-variant-ligatures:normal;font-variant-position:normal;font-variant-caps:normal;font-variant-numeric:normal;font-variant-alternates:normal;font-variant-east-asian:normal;font-feature-settings:normal;font-variation-settings:normal;text-indent:0;text-align:start;text-decoration-line:none;text-decoration-style:solid;text-decoration-color:#000;text-transform:none;text-orientation:mixed;white-space:normal;shape-padding:0;shape-margin:0;inline-size:0;isolation:auto;mix-blend-mode:normal;solid-color:#000;solid-opacity:1" overflow="visible" fill="#3a4d5c"/><path d="M5.79 17.922a.875.875 0 00.196-.39l.251-1.216c1.051-.873 1.758-1.524 2.369-3.686a8.17 8.17 0 001.844-2.143.954.954 0 00.1-.25c.105-.428.081-.874-.117-1.26a1.64 1.64 0 00-.855-.766 1.946 1.946 0 00-1.995.33c-.158.16-.388.247-.546.348l-1.246.733" style="line-height:normal;font-variant-ligatures:normal;font-variant-position:normal;font-variant-caps:normal;font-variant-numeric:normal;font-variant-alternates:normal;font-variant-east-asian:normal;font-feature-settings:normal;font-variation-settings:normal;text-indent:0;text-align:start;text-decoration-line:none;text-decoration-style:solid;text-decoration-color:#000;text-transform:none;text-orientation:mixed;white-space:normal;shape-padding:0;shape-margin:0;inline-size:0;isolation:auto;mix-blend-mode:normal;solid-color:#000;solid-opacity:1" overflow="visible" fill="#74a838"/><path d="M5.794 7.108l-1.458.7a.344.344 0 00-.16.157L2.2 11.975a.351.351 0 00-.02.051L.99 15.783a.343.343 0 00-.015.102L.97 17.42c0 .193.158.35.35.346l3.785-.074a.343.343 0 00.33-.274l.287-1.384c1.223-1.021 1.772-1.292 2.417-3.729a7.29 7.29 0 001.827-2.104.343.343 0 00.038-.096c.079-.323.054-.627-.07-.871a1.083 1.083 0 00-.567-.503 1.37 1.37 0 00-1.416.231c-.716.604-1.389.876-2.16 1.363z" style="line-height:normal;font-variant-ligatures:normal;font-variant-position:normal;font-variant-caps:normal;font-variant-numeric:normal;font-variant-alternates:normal;font-variant-east-asian:normal;font-feature-settings:normal;font-variation-settings:normal;text-indent:0;text-align:start;text-decoration-line:none;text-decoration-style:solid;text-decoration-color:#000;text-transform:none;text-orientation:mixed;white-space:normal;shape-padding:0;shape-margin:0;inline-size:0;isolation:auto;mix-blend-mode:normal;solid-color:#000;solid-opacity:1" overflow="visible" fill="#ffccbc"/><path d="M5.407 15.511l-4.09.03a.344.344 0 00-.342.344L.97 17.42a.344.344 0 00.35.346l3.785-.074a.344.344 0 00.33-.274l.31-1.493a.344.344 0 00-.338-.414z" style="line-height:normal;font-variant-ligatures:normal;font-variant-position:normal;font-variant-caps:normal;font-variant-numeric:normal;font-variant-alternates:normal;font-variant-east-asian:normal;font-feature-settings:normal;font-variation-settings:normal;text-indent:0;text-align:start;text-decoration-line:none;text-decoration-style:solid;text-decoration-color:#000;text-transform:none;text-orientation:mixed;white-space:normal;shape-padding:0;shape-margin:0;inline-size:0;isolation:auto;mix-blend-mode:normal;solid-color:#000;solid-opacity:1" overflow="visible" fill="#3a4d5c"/><path d="M5.791 9.502c-.642.621-1.359 2.16-1.541 3.362a.344.344 0 00.68.104c.154-1.01.696-2.285 1.212-2.852-.116.068-.231.133-.352.209z" style="line-height:normal;font-variant-ligatures:normal;font-variant-position:normal;font-variant-caps:normal;font-variant-numeric:normal;font-variant-alternates:normal;font-variant-east-asian:normal;font-feature-settings:normal;font-variation-settings:normal;text-indent:0;text-align:start;text-decoration-line:none;text-decoration-style:solid;text-decoration-color:#000;text-transform:none;text-orientation:mixed;white-space:normal;shape-padding:0;shape-margin:0;inline-size:0;isolation:auto;mix-blend-mode:normal;solid-color:#000;solid-opacity:1" overflow="visible" fill="#ffa185"/><path d="M20.92 5.026v14.171c0 .946-.773 1.721-1.719 1.721H6.745c-.274 0-.53-.074-.758-.195a1.64 1.64 0 001.446.883H19.89c.946 0 1.718-.775 1.718-1.72V5.712a.344.344 0 00-.083-.226z" style="line-height:normal;font-variant-ligatures:normal;font-variant-position:normal;font-variant-caps:normal;font-variant-numeric:normal;font-variant-alternates:normal;font-variant-east-asian:normal;font-feature-settings:normal;font-variation-settings:normal;text-indent:0;text-align:start;text-decoration-line:none;text-decoration-style:solid;text-decoration-color:#000;text-transform:none;text-orientation:mixed;white-space:normal;shape-padding:0;shape-margin:0;inline-size:0;isolation:auto;mix-blend-mode:normal;solid-color:#000;solid-opacity:1" overflow="visible" fill="#74a838"/></g></svg><svg viewBox="0 0 22.578 22.578" id="svg-sample_(4)" xmlns="http://www.w3.org/2000/svg"><g stroke-width=".769"><path d="M2.664.97c-.608 0-1.107.502-1.107 1.11v3.815c0 .608.5 1.108 1.107 1.108h12.607c.607 0 1.107-.5 1.107-1.108V2.08c0-.608-.5-1.11-1.107-1.11z" style="line-height:normal;font-variant-ligatures:normal;font-variant-position:normal;font-variant-caps:normal;font-variant-numeric:normal;font-variant-alternates:normal;font-variant-east-asian:normal;font-feature-settings:normal;font-variation-settings:normal;text-indent:0;text-align:start;text-decoration-line:none;text-decoration-style:solid;text-decoration-color:#000;text-transform:none;text-orientation:mixed;white-space:normal;shape-padding:0;shape-margin:0;inline-size:0;isolation:auto;mix-blend-mode:normal;solid-color:#000;solid-opacity:1" color="#000" font-weight="400" font-family="sans-serif" overflow="visible" fill="#50b86b"/><path d="M2.476 6.508c-.608 0-1.107.5-1.107 1.107v12.607c0 .607.5 1.107 1.107 1.107h3.815c.608 0 1.108-.5 1.108-1.107V7.615c0-.608-.5-1.107-1.108-1.107z" style="line-height:normal;font-variant-ligatures:normal;font-variant-position:normal;font-variant-caps:normal;font-variant-numeric:normal;font-variant-alternates:normal;font-variant-east-asian:normal;font-feature-settings:normal;font-variation-settings:normal;text-indent:0;text-align:start;text-decoration-line:none;text-decoration-style:solid;text-decoration-color:#000;text-transform:none;text-orientation:mixed;white-space:normal;shape-padding:0;shape-margin:0;inline-size:0;isolation:auto;mix-blend-mode:normal;solid-color:#000;solid-opacity:1" color="#000" font-weight="400" font-family="sans-serif" overflow="visible" fill="#2276bc"/><path d="M4.384 16.825c-.818 0-1.489.671-1.489 1.489 0 .818.671 1.486 1.489 1.486.817 0 1.488-.668 1.488-1.486s-.67-1.489-1.488-1.489z" style="line-height:normal;font-variant-ligatures:normal;font-variant-position:normal;font-variant-caps:normal;font-variant-numeric:normal;font-variant-alternates:normal;font-variant-east-asian:normal;font-feature-settings:normal;font-variation-settings:normal;text-indent:0;text-align:start;text-decoration-line:none;text-decoration-style:solid;text-decoration-color:#000;text-transform:none;text-orientation:mixed;white-space:normal;shape-padding:0;shape-margin:0;inline-size:0;isolation:auto;mix-blend-mode:normal;solid-color:#000;solid-opacity:1" color="#000" font-weight="400" font-family="sans-serif" overflow="visible" fill="#ececec"/><path d="M16.378 2.08c0-.607-.499-1.107-1.107-1.107h-.844v3.221a1.525 1.525 0 01-1.54 1.525l-11.33-.108v.284c0 .608.5 1.108 1.108 1.108H15.27c.608 0 1.107-.5 1.107-1.108z" fill="#349951"/><path d="M2.476 6.508c-.607 0-1.107.499-1.107 1.107v.844H4.59a1.525 1.525 0 011.525 1.54l-.108 11.33h.284c.608 0 1.108-.5 1.108-1.108V7.615c0-.608-.5-1.107-1.108-1.107z" fill="#1d5c87"/><path d="M3.24 8.037a.344.344 0 00-.345.343.344.344 0 00.346.343h2.286a.344.344 0 00.345-.343.344.344 0 00-.345-.343zM3.24 9.563a.344.344 0 00-.345.346.344.344 0 00.346.343h2.286a.344.344 0 00.345-.343.344.344 0 00-.345-.346zM3.24 11.092a.344.344 0 00-.345.343.344.344 0 00.346.343h2.286a.344.344 0 00.345-.343.344.344 0 00-.345-.343z" style="line-height:normal;font-variant-ligatures:normal;font-variant-position:normal;font-variant-caps:normal;font-variant-numeric:normal;font-variant-alternates:normal;font-variant-east-asian:normal;font-feature-settings:normal;font-variation-settings:normal;text-indent:0;text-align:start;text-decoration-line:none;text-decoration-style:solid;text-decoration-color:#000;text-transform:none;text-orientation:mixed;white-space:normal;shape-padding:0;shape-margin:0;inline-size:0;isolation:auto;mix-blend-mode:normal;solid-color:#000;solid-opacity:1" color="#000" font-weight="400" font-family="sans-serif" overflow="visible" fill="#ececec"/><path d="M7.823 6.508c-.608 0-1.107.5-1.107 1.107v12.607c0 .607.5 1.107 1.107 1.107h3.815c.608 0 1.11-.5 1.11-1.107V7.615c0-.608-.502-1.107-1.11-1.107z" style="line-height:normal;font-variant-ligatures:normal;font-variant-position:normal;font-variant-caps:normal;font-variant-numeric:normal;font-variant-alternates:normal;font-variant-east-asian:normal;font-feature-settings:normal;font-variation-settings:normal;text-indent:0;text-align:start;text-decoration-line:none;text-decoration-style:solid;text-decoration-color:#000;text-transform:none;text-orientation:mixed;white-space:normal;shape-padding:0;shape-margin:0;inline-size:0;isolation:auto;mix-blend-mode:normal;solid-color:#000;solid-opacity:1" color="#000" font-weight="400" font-family="sans-serif" overflow="visible" fill="#50b86b"/><path d="M9.73 16.825c-.817 0-1.485.671-1.485 1.489A1.49 1.49 0 009.73 19.8c.817 0 1.488-.668 1.488-1.486s-.67-1.489-1.488-1.489z" style="line-height:normal;font-variant-ligatures:normal;font-variant-position:normal;font-variant-caps:normal;font-variant-numeric:normal;font-variant-alternates:normal;font-variant-east-asian:normal;font-feature-settings:normal;font-variation-settings:normal;text-indent:0;text-align:start;text-decoration-line:none;text-decoration-style:solid;text-decoration-color:#000;text-transform:none;text-orientation:mixed;white-space:normal;shape-padding:0;shape-margin:0;inline-size:0;isolation:auto;mix-blend-mode:normal;solid-color:#000;solid-opacity:1" color="#000" font-weight="400" font-family="sans-serif" overflow="visible" fill="#ececec"/><path d="M7.824 6.508c-.608 0-1.108.499-1.108 1.107v.844h3.221a1.525 1.525 0 011.525 1.54l-.107 11.33h.283c.608 0 1.108-.5 1.108-1.108V7.615c0-.608-.5-1.107-1.108-1.107z" fill="#349951"/><path d="M8.588 8.037a.344.344 0 00-.343.343.344.344 0 00.343.343h2.288a.344.344 0 00.343-.343.344.344 0 00-.343-.343zM8.588 9.563a.344.344 0 00-.343.346.344.344 0 00.343.343h2.288a.344.344 0 00.343-.343.344.344 0 00-.343-.346zM8.588 11.092a.344.344 0 00-.343.343.344.344 0 00.343.343h2.288a.344.344 0 00.343-.343.344.344 0 00-.343-.343z" style="line-height:normal;font-variant-ligatures:normal;font-variant-position:normal;font-variant-caps:normal;font-variant-numeric:normal;font-variant-alternates:normal;font-variant-east-asian:normal;font-feature-settings:normal;font-variation-settings:normal;text-indent:0;text-align:start;text-decoration-line:none;text-decoration-style:solid;text-decoration-color:#000;text-transform:none;text-orientation:mixed;white-space:normal;shape-padding:0;shape-margin:0;inline-size:0;isolation:auto;mix-blend-mode:normal;solid-color:#000;solid-opacity:1" color="#000" font-weight="400" font-family="sans-serif" overflow="visible" fill="#ececec"/><path d="M16.54 6.266l-3.685.988c-.587.158-.942.77-.785 1.357l3.264 12.174c.157.588.77.943 1.357.785l3.685-.988c.587-.157.94-.769.783-1.356L17.897 7.05a1.113 1.113 0 00-1.356-.785z" style="line-height:normal;font-variant-ligatures:normal;font-variant-position:normal;font-variant-caps:normal;font-variant-numeric:normal;font-variant-alternates:normal;font-variant-east-asian:normal;font-feature-settings:normal;font-variation-settings:normal;text-indent:0;text-align:start;text-decoration-line:none;text-decoration-style:solid;text-decoration-color:#000;text-transform:none;text-orientation:mixed;white-space:normal;shape-padding:0;shape-margin:0;inline-size:0;isolation:auto;mix-blend-mode:normal;solid-color:#000;solid-opacity:1" color="#000" font-weight="400" font-family="sans-serif" overflow="visible" fill="#2276bc"/><path d="M17.369 16.726a1.493 1.493 0 00-1.054 1.822 1.494 1.494 0 001.823 1.051 1.492 1.492 0 001.052-1.821 1.492 1.492 0 00-1.821-1.052z" style="line-height:normal;font-variant-ligatures:normal;font-variant-position:normal;font-variant-caps:normal;font-variant-numeric:normal;font-variant-alternates:normal;font-variant-east-asian:normal;font-feature-settings:normal;font-variation-settings:normal;text-indent:0;text-align:start;text-decoration-line:none;text-decoration-style:solid;text-decoration-color:#000;text-transform:none;text-orientation:mixed;white-space:normal;shape-padding:0;shape-margin:0;inline-size:0;isolation:auto;mix-blend-mode:normal;solid-color:#000;solid-opacity:1" color="#000" font-weight="400" font-family="sans-serif" overflow="visible" fill="#ececec"/><path d="M12.856 7.26c-.587.158-.94.77-.782 1.357l.22.815 3.11-.836a1.525 1.525 0 011.873 1.09l2.839 10.97.274-.074c.587-.157.94-.77.781-1.357L17.897 7.051a1.112 1.112 0 00-1.357-.781z" fill="#1d5c87"/><path d="M16.287 7.927a.344.344 0 00-.09.013l-2.21.592a.344.344 0 00-.243.422.344.344 0 00.422.244l2.21-.592a.344.344 0 00.243-.422.344.344 0 00-.332-.256zM16.683 9.403a.344.344 0 00-.089.013l-2.21.592a.344.344 0 00-.244.422.344.344 0 00.422.244l2.21-.592a.344.344 0 00.244-.422.344.344 0 00-.333-.256zM17.08 10.88a.344.344 0 00-.092.012l-2.21.592a.344.344 0 00-.241.422.344.344 0 00.421.243l2.208-.591a.344.344 0 00.243-.422.344.344 0 00-.33-.257zM13.363 2.5c-.818 0-1.489.67-1.489 1.488 0 .817.671 1.486 1.489 1.486.818 0 1.488-.669 1.488-1.486 0-.818-.67-1.489-1.488-1.489zM3.429 2.5a.344.344 0 00-.343.342v2.289a.344.344 0 00.343.343.344.344 0 00.343-.343V2.842a.344.344 0 00-.343-.343zM4.958 2.5a.344.344 0 00-.346.342v2.289a.344.344 0 00.346.343.344.344 0 00.343-.343V2.842a.344.344 0 00-.343-.343zM6.484 2.5a.344.344 0 00-.343.342v2.289a.344.344 0 00.343.343.344.344 0 00.346-.343V2.842a.344.344 0 00-.346-.343z" style="line-height:normal;font-variant-ligatures:normal;font-variant-position:normal;font-variant-caps:normal;font-variant-numeric:normal;font-variant-alternates:normal;font-variant-east-asian:normal;font-feature-settings:normal;font-variation-settings:normal;text-indent:0;text-align:start;text-decoration-line:none;text-decoration-style:solid;text-decoration-color:#000;text-transform:none;text-orientation:mixed;white-space:normal;shape-padding:0;shape-margin:0;inline-size:0;isolation:auto;mix-blend-mode:normal;solid-color:#000;solid-opacity:1" color="#000" font-weight="400" font-family="sans-serif" overflow="visible" fill="#ececec"/><path d="M4.384 16.826c-.118 0-.233.018-.344.044a1.493 1.493 0 011.144 1.444 1.49 1.49 0 01-1.144 1.442c.111.026.226.044.344.044.818 0 1.488-.668 1.488-1.486s-.67-1.488-1.488-1.488zM9.731 16.826c-.119 0-.233.018-.344.044a1.493 1.493 0 011.144 1.444 1.49 1.49 0 01-1.144 1.442c.111.026.225.044.344.044.818 0 1.488-.668 1.488-1.486s-.67-1.488-1.488-1.488zM16.932 16.918c-.096.07-.177.153-.25.24a1.493 1.493 0 011.776.485 1.49 1.49 0 01-.067 1.839 1.47 1.47 0 00.304-.168c.658-.485.802-1.42.317-2.08a1.493 1.493 0 00-2.08-.316zM14.85 3.986c0-.119-.017-.233-.043-.344a1.493 1.493 0 01-1.444 1.144 1.49 1.49 0 01-1.442-1.144c-.026.11-.044.225-.044.344 0 .817.668 1.488 1.486 1.488s1.488-.67 1.488-1.488z" style="line-height:normal;font-variant-ligatures:normal;font-variant-position:normal;font-variant-caps:normal;font-variant-numeric:normal;font-variant-alternates:normal;font-variant-east-asian:normal;font-feature-settings:normal;font-variation-settings:normal;text-indent:0;text-align:start;text-decoration-line:none;text-decoration-style:solid;text-decoration-color:#000;text-transform:none;text-orientation:mixed;white-space:normal;shape-padding:0;shape-margin:0;inline-size:0;isolation:auto;mix-blend-mode:normal;solid-color:#000;solid-opacity:1" color="#000" font-weight="400" font-family="sans-serif" overflow="visible" fill="#ccc"/></g></svg></svg>